<?xml version="1.0" standalone="no"?>
<!DOCTYPE svg PUBLIC "-//W3C//DTD SVG 20010904//EN"
 "http://www.w3.org/TR/2001/REC-SVG-20010904/DTD/svg10.dtd">
<svg version="1.0" xmlns="http://www.w3.org/2000/svg"
 width="500.000000pt" height="500.000000pt" viewBox="0 0 500.000000 500.000000"
 preserveAspectRatio="xMidYMid meet">
<metadata>
Created by potrace 1.14, written by Peter Selinger 2001-2017
</metadata>
<g transform="translate(0.000000,500.000000) scale(0.100000,-0.100000)"
fill="#000000" stroke="none">
<path d="M2360 4265 c-732 -103 -1287 -598 -1469 -1311 -54 -211 -73 -542 -42
-749 83 -569 394 -1038 876 -1320 224 -130 452 -203 740 -235 248 -27 575 13
820 102 140 50 315 139 315 160 0 18 -128 753 -135 774 -2 8 -46 -4 -123 -32
-491 -178 -964 -97 -1196 205 -121 157 -176 347 -177 606 0 219 23 344 91 490
174 376 586 509 1144 369 55 -14 133 -36 174 -50 41 -14 78 -21 82 -17 4 4 37
179 73 388 61 353 65 381 49 393 -30 24 -215 109 -292 135 -203 67 -388 97
-640 102 -130 3 -216 0 -290 -10z"/>
</g>
</svg>
