<?xml version="1.0" standalone="no"?>
<!DOCTYPE svg PUBLIC "-//W3C//DTD SVG 20010904//EN"
 "http://www.w3.org/TR/2001/REC-SVG-20010904/DTD/svg10.dtd">
<svg version="1.0" xmlns="http://www.w3.org/2000/svg"
 width="1080.000000pt" height="1080.000000pt" viewBox="0 0 1080.000000 1080.000000"
 preserveAspectRatio="xMidYMid meet">

<g transform="translate(0.000000,1080.000000) scale(0.100000,-0.100000)"
fill="#000000" stroke="none">
<path d="M2826 6635 c-360 -75 -618 -344 -676 -708 -17 -106 -8 -290 20 -387
67 -235 213 -417 421 -525 144 -74 215 -90 414 -90 147 0 181 3 248 23 87 25
189 74 258 124 57 41 159 134 159 145 0 10 -182 193 -192 193 -4 0 -22 -14
-40 -30 -197 -181 -456 -228 -676 -123 -34 17 -85 56 -128 98 -117 116 -174
256 -174 431 0 177 61 326 179 436 139 132 317 176 506 128 70 -18 109 -37
240 -115 153 -92 302 26 223 175 -43 79 -188 168 -345 211 -102 27 -336 35
-437 14z"/>
<path d="M8920 6632 c-69 -26 -101 -46 -148 -93 -181 -183 -122 -487 116 -597
77 -36 199 -37 284 -4 76 30 151 100 191 176 30 57 32 67 32 166 0 87 -4 113
-22 152 -25 54 -92 131 -144 164 -84 53 -221 69 -309 36z m240 -63 c60 -26
134 -100 162 -163 31 -70 31 -182 1 -247 -29 -64 -87 -126 -147 -156 -68 -35
-173 -42 -244 -19 -65 22 -145 93 -180 160 -23 44 -27 63 -27 136 0 70 4 94
24 134 76 155 255 222 411 155z"/>
<path d="M8955 6455 c-103 -56 -136 -186 -72 -284 56 -84 192 -108 257 -46
l30 29 0 -27 c0 -22 5 -27 25 -27 25 0 25 0 25 95 l0 95 -90 0 c-89 0 -90 0
-90 -25 0 -24 3 -25 55 -25 65 0 70 -12 26 -59 -25 -27 -36 -31 -81 -31 -47 0
-56 4 -91 39 -34 34 -39 44 -39 85 0 66 23 104 76 128 51 22 91 18 137 -14 60
-43 90 3 31 48 -30 23 -49 29 -103 32 -47 2 -75 -2 -96 -13z"/>
<path d="M4662 5828 l3 -793 24 -39 c63 -102 184 -100 245 4 20 33 21 55 26
402 l5 366 330 -319 c182 -176 382 -369 445 -428 l115 -109 93 88 c50 49 91
92 91 97 -2 8 -57 62 -536 524 l-203 195 103 99 c456 440 515 501 527 542 36
118 -58 197 -175 149 -21 -9 -186 -162 -412 -382 l-378 -368 -3 382 -2 382
-150 0 -150 0 2 -792z"/>
<path d="M7025 6601 c-23 -10 -53 -33 -68 -50 l-27 -33 0 -789 0 -789 289 0
c430 0 562 19 736 105 270 134 432 384 452 695 18 296 -114 567 -357 729 -101
68 -192 105 -322 132 -79 16 -136 19 -378 19 -255 0 -289 -2 -325 -19z m650
-276 c209 -55 357 -206 400 -413 54 -253 -59 -517 -265 -619 -108 -54 -165
-65 -382 -70 l-198 -6 0 562 0 561 193 0 c141 0 209 -4 252 -15z"/>
<path d="M3900 5910 c-219 -29 -302 -139 -157 -209 74 -36 181 -54 282 -47
204 12 327 91 271 172 -22 32 -122 71 -209 83 -85 12 -104 12 -187 1z"/>
<path d="M6155 5910 c-118 -16 -202 -61 -219 -117 -12 -38 42 -87 126 -114 61
-20 93 -24 193 -24 142 1 226 21 281 69 90 78 8 158 -190 185 -85 12 -103 12
-191 1z"/>
<path d="M2910 4447 c-94 -26 -154 -81 -184 -170 -20 -60 -20 -99 0 -168 20
-68 88 -138 154 -158 88 -26 202 -10 271 39 l29 21 0 110 0 109 -111 0 -110 0
3 -42 3 -43 63 -3 62 -3 0 -39 c0 -34 -4 -42 -30 -55 -16 -8 -53 -15 -83 -15
-97 0 -160 65 -160 165 0 136 131 209 250 141 l43 -25 30 37 c28 35 29 38 13
51 -61 47 -170 68 -243 48z"/>
<path d="M3282 4263 c3 -215 12 -245 81 -291 32 -21 55 -28 113 -30 40 -2 88
1 108 8 44 14 102 77 115 127 6 21 11 114 11 206 l0 168 -47 -3 -48 -3 -5
-175 c-3 -96 -9 -183 -14 -193 -12 -26 -59 -47 -105 -47 -31 0 -49 7 -73 29
l-33 29 -5 179 -5 178 -48 3 -48 3 3 -188z"/>
<path d="M3873 4212 c-57 -130 -105 -245 -109 -254 -5 -16 0 -18 43 -18 l50 0
26 60 26 60 113 0 113 0 24 -60 24 -60 49 0 c27 0 48 5 48 11 0 6 -48 120
-107 255 l-108 244 -45 0 -45 -1 -102 -237z m217 -54 c0 -5 -31 -8 -70 -8 -38
0 -70 4 -70 9 0 5 16 44 36 87 l35 78 35 -80 c19 -43 34 -82 34 -86z"/>
<path d="M4360 4195 l0 -256 48 3 47 3 3 83 3 82 49 0 48 0 57 -81 c31 -44 62
-82 69 -85 8 -3 35 -4 61 -2 l46 3 -66 93 c-37 51 -65 94 -63 95 1 1 16 9 33
17 16 9 40 31 53 50 20 29 23 44 20 93 -5 68 -27 103 -84 132 -32 17 -63 21
-181 23 l-143 4 0 -257z m265 151 c22 -10 37 -24 41 -40 17 -70 -31 -106 -140
-106 l-66 0 0 80 0 80 65 0 c36 0 81 -6 100 -14z"/>
<path d="M5031 4423 c-48 -103 -201 -464 -201 -472 0 -6 20 -11 45 -11 l46 0
26 60 26 61 114 -3 115 -3 22 -55 22 -55 52 -3 c29 -2 52 -1 52 2 0 2 -49 116
-108 253 l-108 248 -45 3 c-41 3 -47 0 -58 -25z m125 -270 c-2 -2 -35 -3 -74
-1 l-71 3 37 84 36 85 38 -84 c21 -45 37 -85 34 -87z"/>
<path d="M5424 4437 c-2 -7 -3 -120 -2 -252 l3 -240 45 0 45 0 5 165 5 165
129 -167 c128 -165 130 -168 168 -168 l38 0 0 255 0 255 -45 0 -45 0 0 -160
c0 -88 -3 -160 -7 -159 -5 0 -63 72 -131 160 -122 158 -123 159 -163 159 -23
0 -42 -5 -45 -13z"/>
<path d="M5947 4443 c-4 -3 -7 -24 -7 -45 l0 -38 80 0 80 0 0 -211 0 -210 48
3 47 3 3 208 2 207 75 0 75 0 0 45 0 45 -198 0 c-109 0 -202 -3 -205 -7z"/>
<path d="M6434 4437 c-2 -7 -3 -120 -2 -252 l3 -240 190 0 190 0 3 42 3 42
-143 3 -143 3 -3 58 -3 57 126 0 125 0 0 45 0 45 -125 0 -125 0 0 60 0 60 140
0 140 0 0 45 0 45 -185 0 c-141 0 -187 -3 -191 -13z"/>
<path d="M6910 4195 l0 -255 188 2 187 3 3 43 3 42 -140 0 -141 0 0 60 0 60
120 0 120 0 0 45 0 45 -120 0 -120 0 0 60 0 60 135 0 135 0 0 45 0 45 -185 0
-185 0 0 -255z"/>
<path d="M7380 4195 l0 -257 128 4 c104 4 136 8 180 27 93 42 144 121 144 227
1 104 -44 175 -142 225 -39 20 -63 24 -177 27 l-133 4 0 -257z m260 143 c61
-31 90 -77 90 -143 0 -98 -62 -154 -181 -163 l-69 -5 0 167 0 166 58 0 c40 0
71 -7 102 -22z"/>
</g>
</svg>
