<?xml version="1.0" standalone="no"?>
<!DOCTYPE svg PUBLIC "-//W3C//DTD SVG 20010904//EN"
 "http://www.w3.org/TR/2001/REC-SVG-20010904/DTD/svg10.dtd">
<svg version="1.0" xmlns="http://www.w3.org/2000/svg"
 width="100.000000pt" height="100.000000pt" viewBox="0 0 100.000000 100.000000"
 preserveAspectRatio="xMidYMid meet">

<g transform="translate(0.000000,100.000000) scale(0.100000,-0.100000)"
fill="#000000" stroke="none">
<path d="M160 840 c-19 -19 -20 -33 -20 -340 0 -307 1 -321 20 -340 19 -19 33
-20 340 -20 307 0 321 1 340 20 19 19 20 33 20 340 0 307 -1 321 -20 340 -19
19 -33 20 -340 20 -307 0 -321 -1 -340 -20z m658 -22 c17 -17 17 -619 0 -636
-17 -17 -619 -17 -636 0 -17 17 -17 619 0 636 17 17 619 17 636 0z"/>
</g>
</svg>
